<?xml version="1.0" encoding="utf-8"?>
<!-- Generator: Adobe Illustrator 19.0.1, SVG Export Plug-In . SVG Version: 6.00 Build 0)  -->
<svg version="1.1" id="Layer_1" xmlns="http://www.w3.org/2000/svg" xmlns:xlink="http://www.w3.org/1999/xlink" x="0px" y="0px"
	 viewBox="43.625 -13.074 1199.969 682.939" enable-background="new 43.625 -13.074 1199.969 682.939" xml:space="preserve">
<g opacity="0.45">
	<path fill="#919191" stroke="#919191" d="M-29.427,3.103l5.237,610.854L9.889,235.32L-29.427,3.103z"/>
	<path fill="#666666" stroke="#666666" d="M-29.427,3.103L9.889,235.32L48.212,71.293L-29.427,3.103z"/>
	<path fill="#4A4A4A" stroke="#4A4A4A" d="M-29.427,3.103l77.639,68.19L161.587-47.983L-29.427,3.103z"/>
	<path fill="#666666" stroke="#666666" d="M161.587-47.983L48.212,71.293l112.667,45.285L161.587-47.983z"/>
	<path fill="#757575" stroke="#757575" d="M161.587-47.983l-0.708,164.561l62.894-27.871L161.587-47.983z"/>
	<path fill="#696969" stroke="#696969" d="M161.587-47.983l62.186,136.69l17.126-118.069L161.587-47.983z"/>
	<path fill="#757575" stroke="#757575" d="M161.587-47.983l79.312,18.621l265.084-11.77L161.587-47.983z"/>
	<path fill="#919191" stroke="#919191" d="M161.587-47.983l344.396,6.852l323.581-12.431L161.587-47.983z"/>
	<path fill="#8C8C8C" stroke="#8C8C8C" d="M240.899-29.361L223.773,88.708l96.091,53.748L240.899-29.361z"/>
	<path fill="#8A8A8A" stroke="#8A8A8A" d="M240.899-29.361l78.965,171.817l74.016-153.267L240.899-29.361z"/>
	<path fill="#828282" stroke="#828282" d="M240.899-29.361l152.98,18.549l112.104-30.319L240.899-29.361z"/>
	<path fill="#B0B0B0" stroke="#B0B0B0" d="M393.879-10.812l-74.016,153.267l140.145,7.71L393.879-10.812z"/>
	<path fill="#A1A1A1" stroke="#A1A1A1" d="M393.879-10.812l66.129,160.977l45.975-191.296L393.879-10.812z"/>
	<path fill="#B8B8B8" stroke="#B8B8B8" d="M505.983-41.131l-45.975,191.296l103.945-31.109L505.983-41.131z"/>
	<path fill="#A6A6A6" stroke="#A6A6A6" d="M505.983-41.131l57.971,160.187l67.717-107.611L505.983-41.131z"/>
	<path fill="#919191" stroke="#919191" d="M505.983-41.131l125.688,52.576l197.893-65.007L505.983-41.131z"/>
	<path fill="#ABABAB" stroke="#ABABAB" d="M631.672,11.445l-67.717,107.611l108.973-95.42L631.672,11.445z"/>
	<path fill="#8F8F8F" stroke="#8F8F8F" d="M631.672,11.445l41.255,12.191l156.638-77.198L631.672,11.445z"/>
	<path fill="#B8B8B8" stroke="#B8B8B8" d="M672.927,23.636l-108.973,95.42l144.123-38.049L672.927,23.636z"/>
	<path fill="#919191" stroke="#919191" d="M672.927,23.636l35.15,57.371L829.565-53.562L672.927,23.636z"/>
	<path fill="#969696" stroke="#969696" d="M829.565-53.562L708.077,81.007l95.408,12.501L829.565-53.562z"/>
	<path fill="#787878" stroke="#787878" d="M829.565-53.562L803.485,93.508L921.24-6.767L829.565-53.562z"/>
	<path fill="#666666" stroke="#666666" d="M829.565-53.562L921.24-6.767l98.633-18.604L829.565-53.562z"/>
	<path fill="#525252" stroke="#525252" d="M829.565-53.562l190.308,28.19l162.744-19.088L829.565-53.562z"/>
	<path fill="#878787" stroke="#878787" d="M921.24-6.767L803.485,93.508l171.306,5.526L921.24-6.767z"/>
	<path fill="#666666" stroke="#666666" d="M921.24-6.767l53.552,105.801l45.081-124.406L921.24-6.767z"/>
	<path fill="#696969" stroke="#696969" d="M1019.873-25.372L974.792,99.034l68.41-25.843L1019.873-25.372z"/>
	<path fill="#424242" stroke="#424242" d="M1019.873-25.372l23.329,98.563L1182.617-44.46L1019.873-25.372z"/>
	<path fill="#4A4A4A" stroke="#4A4A4A" d="M1182.617-44.46L1043.202,73.191l116.213,26.138L1182.617-44.46z"/>
	<path fill="#303030" stroke="#303030" d="M1182.617-44.46l-23.202,143.788l105.532-99.278L1182.617-44.46z"/>
	<path fill="#3D3D3D" stroke="#3D3D3D" d="M1264.947,0.051l-105.532,99.278l121.641-1.551L1264.947,0.051z"/>
	<path fill="#8F8F8F" stroke="#8F8F8F" d="M48.212,71.293L9.889,235.32L124.2,200.722L48.212,71.293z"/>
	<path fill="#8A8A8A" stroke="#8A8A8A" d="M48.212,71.293L124.2,200.722l36.679-84.144L48.212,71.293z"/>
	<path fill="#ABABAB" stroke="#ABABAB" d="M160.879,116.578L124.2,200.722l131.344,25.76L160.879,116.578z"/>
	<path fill="#A6A6A6" stroke="#A6A6A6" d="M160.879,116.578l94.665,109.904L223.773,88.708L160.879,116.578z"/>
	<path fill="#B5B5B5" stroke="#B5B5B5" d="M223.773,88.708l31.771,137.775l64.32-84.027L223.773,88.708z"/>
	<path fill="#CCCCCC" stroke="#CCCCCC" d="M319.864,142.455l-64.32,84.027l142.433-41.197L319.864,142.455z"/>
	<path fill="#CFCFCF" stroke="#CFCFCF" d="M319.864,142.455l78.113,42.83l62.032-35.121L319.864,142.455z"/>
	<path fill="#DEDEDE" stroke="#DEDEDE" d="M460.009,150.165l-62.032,35.121l106.436,53.828L460.009,150.165z"/>
	<path fill="#DEDEDE" stroke="#DEDEDE" d="M460.009,150.165l44.404,88.949l59.542-120.057L460.009,150.165z"/>
	<path fill="#EBEBEB" stroke="#EBEBEB" d="M563.954,119.056l-59.542,120.057l122.416-13.816L563.954,119.056z"/>
	<path fill="#D6D6D6" stroke="#D6D6D6" d="M563.954,119.056l62.874,106.242l81.248-144.291L563.954,119.056z"/>
	<path fill="#E6E6E6" stroke="#E6E6E6" d="M708.077,81.007l-81.248,144.291l63.771,40.738L708.077,81.007z"/>
	<path fill="#DEDEDE" stroke="#DEDEDE" d="M708.077,81.007L690.6,266.036l129.563-27.539L708.077,81.007z"/>
	<path fill="#C2C2C2" stroke="#C2C2C2" d="M708.077,81.007l112.087,157.49l-16.678-144.99L708.077,81.007z"/>
	<path fill="#BFBFBF" stroke="#BFBFBF" d="M803.485,93.508l16.678,144.99l157.011-55.962L803.485,93.508z"/>
	<path fill="#A1A1A1" stroke="#A1A1A1" d="M803.485,93.508l173.689,89.028l-2.382-83.502L803.485,93.508z"/>
	<path fill="#969696" stroke="#969696" d="M974.792,99.034l2.382,83.502l92.643-2.326L974.792,99.034z"/>
	<path fill="#828282" stroke="#828282" d="M974.792,99.034l95.025,81.176l-26.615-107.019L974.792,99.034z"/>
	<path fill="#757575" stroke="#757575" d="M1043.202,73.191l26.615,107.019l89.598-80.881L1043.202,73.191z"/>
	<path fill="#878787" stroke="#878787" d="M1159.416,99.329l-89.598,80.881l86.788,62.041L1159.416,99.329z"/>
	<path fill="#696969" stroke="#696969" d="M1159.416,99.329l-2.81,142.922l124.452-144.472L1159.416,99.329z"/>
	<path fill="#737373" stroke="#737373" d="M1281.057,97.778L1156.606,242.25l146.555,17.065L1281.057,97.778z"/>
	<path fill="#7D7D7D" stroke="#7D7D7D" d="M9.889,235.32L-24.19,613.957L3.191,481.635L9.889,235.32z"/>
	<path fill="#9C9C9C" stroke="#9C9C9C" d="M9.889,235.32L3.191,481.635l20.634-170.358L9.889,235.32z"/>
	<path fill="#A1A1A1" stroke="#A1A1A1" d="M9.889,235.32l13.936,75.957L124.2,200.722L9.889,235.32z"/>
	<path fill="#ABABAB" stroke="#ABABAB" d="M124.2,200.722L23.825,311.277l144.24,62.684L124.2,200.722z"/>
	<path fill="#BFBFBF" stroke="#BFBFBF" d="M124.2,200.722l43.865,173.239l60.048-22.392L124.2,200.722z"/>
	<path fill="#C2C2C2" stroke="#C2C2C2" d="M124.2,200.722l103.913,150.847l27.431-125.087L124.2,200.722z"/>
	<path fill="#D1D1D1" stroke="#D1D1D1" d="M255.544,226.482l-27.431,125.087l132.276,4.236L255.544,226.482z"/>
	<path fill="#DBDBDB" stroke="#DBDBDB" d="M255.544,226.482l104.845,129.323l37.587-170.52L255.544,226.482z"/>
	<path fill="#E8E8E8" stroke="#E8E8E8" d="M397.977,185.286l-37.587,170.52l66.446-26.936L397.977,185.286z"/>
	<path fill="#EBEBEB" stroke="#EBEBEB" d="M397.977,185.286l28.859,143.584l77.577-89.756L397.977,185.286z"/>
	<path fill="#F5F5F5" stroke="#F5F5F5" d="M504.413,239.114l-77.577,89.756l173.349,28.027L504.413,239.114z"/>
	<path fill="#F7F7F7" stroke="#F7F7F7" d="M504.413,239.114l95.772,117.783l26.644-131.599L504.413,239.114z"/>
	<path fill="#F5F5F5" stroke="#F5F5F5" d="M626.829,225.298l-26.644,131.599l90.415-90.861L626.829,225.298z"/>
	<path fill="#F5F5F5" stroke="#F5F5F5" d="M690.6,266.036l-90.415,90.861l69.868-1.142L690.6,266.036z"/>
	<path fill="#F0F0F0" stroke="#F0F0F0" d="M690.6,266.036l-20.548,89.719l116.243,18.886L690.6,266.036z"/>
	<path fill="#E6E6E6" stroke="#E6E6E6" d="M690.6,266.036l95.695,108.604l33.868-136.143L690.6,266.036z"/>
	<path fill="#D1D1D1" stroke="#D1D1D1" d="M820.164,238.497L786.295,374.64l195.898-67.213L820.164,238.497z"/>
	<path fill="#C2C2C2" stroke="#C2C2C2" d="M820.164,238.497l162.03,68.93l-5.019-124.892L820.164,238.497z"/>
	<path fill="#B0B0B0" stroke="#B0B0B0" d="M977.174,182.536l5.019,124.892l87.624-127.218L977.174,182.536z"/>
	<path fill="#B0B0B0" stroke="#B0B0B0" d="M1069.817,180.21l-87.624,127.218l36.173,24.201L1069.817,180.21z"/>
	<path fill="#A1A1A1" stroke="#A1A1A1" d="M1069.817,180.21l-51.451,151.419l138.239-89.379L1069.817,180.21z"/>
	<path fill="#9C9C9C" stroke="#9C9C9C" d="M1156.606,242.25l-138.239,89.379l148.372,7.471L1156.606,242.25z"/>
	<path fill="#878787" stroke="#878787" d="M1156.606,242.25l10.133,96.85l136.422-79.785L1156.606,242.25z"/>
	<path fill="#7D7D7D" stroke="#7D7D7D" d="M1303.16,259.315L1166.739,339.1l142.229-6.527L1303.16,259.315z"/>
	<path fill="#A1A1A1" stroke="#A1A1A1" d="M23.825,311.277L3.191,481.635l164.874-107.674L23.825,311.277z"/>
	<path fill="#919191" stroke="#919191" d="M168.065,373.961L3.191,481.635l148.417,0.645L168.065,373.961z"/>
	<path fill="#A1A1A1" stroke="#A1A1A1" d="M168.065,373.961L151.609,482.28l74.146,34.426L168.065,373.961z"/>
	<path fill="#B8B8B8" stroke="#B8B8B8" d="M168.065,373.961l57.69,142.745l2.358-165.137L168.065,373.961z"/>
	<path fill="#C9C9C9" stroke="#C9C9C9" d="M228.113,351.569l-2.358,165.137l134.634-160.901L228.113,351.569z"/>
	<path fill="#B8B8B8" stroke="#B8B8B8" d="M360.389,355.805L225.755,516.706l175.092-2.648L360.389,355.805z"/>
	<path fill="#D1D1D1" stroke="#D1D1D1" d="M360.389,355.805l40.457,158.253l47.813-66.861L360.389,355.805z"/>
	<path fill="#E6E6E6" stroke="#E6E6E6" d="M360.389,355.805l88.27,91.392L426.836,328.87L360.389,355.805z"/>
	<path fill="#F0F0F0" stroke="#F0F0F0" d="M426.836,328.87l21.824,118.327l151.525-90.301L426.836,328.87z"/>
	<path fill="#EBEBEB" stroke="#EBEBEB" d="M600.185,356.897L448.66,447.197l136.153-10.374L600.185,356.897z"/>
	<path fill="#F2F2F2" stroke="#F2F2F2" d="M600.185,356.897l-15.372,79.927l85.24-81.068L600.185,356.897z"/>
	<path fill="#DEDEDE" stroke="#DEDEDE" d="M670.053,355.755l-85.24,81.068l116.321,76.322L670.053,355.755z"/>
	<path fill="#D1D1D1" stroke="#D1D1D1" d="M670.053,355.755l31.081,157.39l89.519-55.523L670.053,355.755z"/>
	<path fill="#E3E3E3" stroke="#E3E3E3" d="M670.053,355.755l120.6,101.867l-4.357-82.981L670.053,355.755z"/>
	<path fill="#C2C2C2" stroke="#C2C2C2" d="M786.295,374.64l4.357,82.981l164.153,12.609L786.295,374.64z"/>
	<path fill="#C4C4C4" stroke="#C4C4C4" d="M786.295,374.64l168.509,95.59l27.388-162.803L786.295,374.64z"/>
	<path fill="#B8B8B8" stroke="#B8B8B8" d="M982.193,307.428L954.805,470.23l63.562-138.602L982.193,307.428z"/>
	<path fill="#A3A3A3" stroke="#A3A3A3" d="M1018.367,331.629L954.805,470.23l130.59-20.987L1018.367,331.629z"/>
	<path fill="#A1A1A1" stroke="#A1A1A1" d="M1018.367,331.629l67.028,117.614l81.344-110.143L1018.367,331.629z"/>
	<path fill="#878787" stroke="#878787" d="M1166.739,339.1l-81.344,110.143l52.818,45.277L1166.739,339.1z"/>
	<path fill="#707070" stroke="#707070" d="M1166.739,339.1l-28.526,155.42l102.383,24.046L1166.739,339.1z"/>
	<path fill="#787878" stroke="#787878" d="M1166.739,339.1l73.857,179.466l68.372-185.993L1166.739,339.1z"/>
	<path fill="#4D4D4D" stroke="#4D4D4D" d="M1308.968,332.573l-68.372,185.993l21.443,85.774L1308.968,332.573z"/>
	<path fill="#2B2B2B" stroke="#2B2B2B" d="M1242.852,316.51l-42.012,230.861l0.476,72.789L1242.852,316.51z"/>
	<path fill="#404040" stroke="#404040" d="M3.191,481.635L-24.19,613.957l150.478,9.752L3.191,481.635z"/>
	<path fill="#666666" stroke="#666666" d="M3.191,481.635l123.096,142.074l25.321-141.429L3.191,481.635z"/>
	<path fill="#5E5E5E" stroke="#5E5E5E" d="M151.609,482.28l-25.321,141.429l79.923-45.216L151.609,482.28z"/>
	<path fill="#7D7D7D" stroke="#7D7D7D" d="M151.609,482.28l54.602,96.213l19.544-61.787L151.609,482.28z"/>
	<path fill="#757575" stroke="#757575" d="M225.755,516.706l-19.544,61.787l141.833,15.1L225.755,516.706z"/>
	<path fill="#8F8F8F" stroke="#8F8F8F" d="M225.755,516.706l122.289,76.887l52.803-79.535L225.755,516.706z"/>
	<path fill="#919191" stroke="#919191" d="M400.847,514.059l-52.803,79.535l116.452-21.066L400.847,514.059z"/>
	<path fill="#B3B3B3" stroke="#B3B3B3" d="M400.847,514.059l63.649,58.468l-15.837-125.33L400.847,514.059z"/>
	<path fill="#C4C4C4" stroke="#C4C4C4" d="M448.66,447.197l15.837,125.33l120.317-135.704L448.66,447.197z"/>
	<path fill="#ABABAB" stroke="#ABABAB" d="M584.813,436.823L464.496,572.527l136.359,44.357L584.813,436.823z"/>
	<path fill="#B5B5B5" stroke="#B5B5B5" d="M584.813,436.823l16.043,180.061l100.278-103.739L584.813,436.823z"/>
	<path fill="#969696" stroke="#969696" d="M701.134,513.145L600.856,616.884l148.348-31.969L701.134,513.145z"/>
	<path fill="#A8A8A8" stroke="#A8A8A8" d="M701.134,513.145l48.07,71.77l41.449-127.293L701.134,513.145z"/>
	<path fill="#8C8C8C" stroke="#8C8C8C" d="M790.652,457.622l-41.449,127.293l48.931,49.138L790.652,457.622z"/>
	<path fill="#808080" stroke="#808080" d="M790.652,457.622l7.482,176.432l141.411-37.804L790.652,457.622z"/>
	<path fill="#919191" stroke="#919191" d="M790.652,457.622l148.894,138.627l15.259-126.018L790.652,457.622z"/>
	<path fill="#666666" stroke="#666666" d="M954.805,470.23l-15.259,126.018l136.219-19.286L954.805,470.23z"/>
	<path fill="#787878" stroke="#787878" d="M954.805,470.23l120.96,106.733l9.63-127.72L954.805,470.23z"/>
	<path fill="#636363" stroke="#636363" d="M1085.395,449.243l-9.63,127.72l62.448-82.443L1085.395,449.243z"/>
	<path fill="#383838" stroke="#383838" d="M1138.212,494.52l-62.448,82.443l93.035,58.029L1138.212,494.52z"/>
	<path fill="#383838" stroke="#383838" d="M1138.212,494.52l30.587,140.472l71.797-116.426L1138.212,494.52z"/>
	<path fill="#1C1C1C" stroke="#1C1C1C" d="M1240.596,518.566l-71.797,116.426l93.24-30.653L1240.596,518.566z"/>
	<path fill="#1A1A1A" stroke="#1A1A1A" d="M-24.19,613.957L91.25,721.362L42.037,673.75L-24.19,613.957z"/>
	<path fill="#242424" stroke="#242424" d="M-24.19,613.957l66.227,59.793l84.251-50.041L-24.19,613.957z"/>
	<path fill="#262626" stroke="#262626" d="M126.288,623.709L42.037,673.75l49.213,47.612L126.288,623.709z"/>
	<path fill="#333333" stroke="#333333" d="M126.288,623.709L91.25,721.362l160.551,25.307L126.288,623.709z"/>
	<path fill="#3D3D3D" stroke="#3D3D3D" d="M126.288,623.709l125.514,122.959l-45.59-168.175L126.288,623.709z"/>
	<path fill="#4D4D4D" stroke="#4D4D4D" d="M206.211,578.493l45.59,168.175l79.88-76.517L206.211,578.493z"/>
	<path fill="#5E5E5E" stroke="#5E5E5E" d="M206.211,578.493l125.47,91.658l16.363-76.558L206.211,578.493z"/>
	<path fill="#5E5E5E" stroke="#5E5E5E" d="M348.044,593.593l-16.363,76.558l109.449,6.457L348.044,593.593z"/>
	<path fill="#757575" stroke="#757575" d="M348.044,593.593l93.086,83.016l23.366-104.082L348.044,593.593z"/>
	<path fill="#7D7D7D" stroke="#7D7D7D" d="M464.496,572.527L441.13,676.609l159.725-59.725L464.496,572.527z"/>
	<path fill="#757575" stroke="#757575" d="M600.856,616.884L441.13,676.609l142.593,30.215L600.856,616.884z"/>
	<path fill="#707070" stroke="#707070" d="M600.856,616.884l-17.133,89.94l157.222,13.369L600.856,616.884z"/>
	<path fill="#707070" stroke="#707070" d="M600.856,616.884l140.089,103.308l8.259-135.277L600.856,616.884z"/>
	<path fill="#636363" stroke="#636363" d="M749.204,584.915l-8.259,135.277l54.495-46.383L749.204,584.915z"/>
	<path fill="#696969" stroke="#696969" d="M749.204,584.915l46.236,88.895l2.694-39.756L749.204,584.915z"/>
	<path fill="#575757" stroke="#575757" d="M798.135,634.053l-2.694,39.756l105.157,46.834L798.135,634.053z"/>
	<path fill="#4D4D4D" stroke="#4D4D4D" d="M798.135,634.053l102.463,86.591l38.948-124.395L798.135,634.053z"/>
	<path fill="#383838" stroke="#383838" d="M939.546,596.249l-38.948,124.395l151.372,24.195L939.546,596.249z"/>
	<path fill="#303030" stroke="#303030" d="M939.546,596.249L1051.97,744.84l23.795-167.876L939.546,596.249z"/>
	<path fill="#1A1A1A" stroke="#1A1A1A" d="M1075.765,576.963L1051.97,744.84l102.933-61.597L1075.765,576.963z"/>
	<path fill="#1A1A1A" stroke="#1A1A1A" d="M1075.765,576.963l79.138,106.279l13.896-48.25L1075.765,576.963z"/>
	<path fill="#030303" stroke="#030303" d="M1168.799,634.993l-13.896,48.25l107.667,6.784L1168.799,634.993z"/>
	<path stroke="#000000" d="M1168.799,634.993l93.771,55.033l-0.531-85.686L1168.799,634.993z"/>
	<path fill="#6B6B6B" stroke="#6B6B6B" d="M296.458,668.277l716.324-1.554l-278.434-20.938L296.458,668.277z"/>
	<path fill="#707070" stroke="#707070" d="M296.458,668.277l437.89-22.491L593.6,634.429L296.458,668.277z"/>
	<path fill="#666666" stroke="#666666" d="M296.458,668.277L593.6,634.429l-127.651-25.667L296.458,668.277z"/>
	<path fill="#595959" stroke="#595959" d="M296.458,668.277l169.491-59.515l-97.981-5.485L296.458,668.277z"/>
	<path fill="#454545" stroke="#454545" d="M734.348,645.786l278.434,20.938L877.272,646.17L734.348,645.786z"/>
	<path fill="#595959" stroke="#595959" d="M734.348,645.786l142.924,0.384l-94.139-39.785L734.348,645.786z"/>
	<path fill="#0A0A0A" stroke="#0A0A0A" d="M1012.782,666.723l188.533-46.563l-96.386-5.763L1012.782,666.723z"/>
</g>
</svg>
